<svg xmlns="http://www.w3.org/2000/svg" id="mdi-dumbbell" viewBox="0 0 512 512" width="512" height="512">
  <!-- Background -->
  <rect width="512" height="512" fill="#FAFAFA" stroke="#000000" stroke-width="6"/>
  
  <!-- Drop shadow for dumbbell -->
  <g transform="translate(12, 12)">
    <g transform="translate(100, 100) scale(12, 12)">
      <path d="M20.57,14.86L22,13.43L20.57,12L17,15.57L8.43,7L12,3.43L10.57,2L9.14,3.43L7.71,2L5.57,4.14L4.14,2.71L2.71,4.14L4.14,5.57L2,7.71L3.43,9.14L2,10.57L3.43,12L7,8.43L15.57,17L12,20.57L13.43,22L14.86,20.57L16.29,22L18.43,19.86L19.86,21.29L21.29,19.86L19.86,18.43L22,16.29L20.57,14.86Z" fill="#000000"/>
    </g>
  </g>
  
  <!-- Main dumbbell -->
  <g transform="translate(100, 100) scale(12, 12)">
    <path d="M20.57,14.86L22,13.43L20.57,12L17,15.57L8.43,7L12,3.43L10.57,2L9.14,3.43L7.71,2L5.57,4.14L4.14,2.71L2.71,4.14L4.14,5.57L2,7.71L3.43,9.14L2,10.57L3.43,12L7,8.43L15.57,17L12,20.57L13.43,22L14.86,20.57L16.29,22L18.43,19.86L19.86,21.29L21.29,19.86L19.86,18.43L22,16.29L20.57,14.86Z" fill="#8B5CF6" stroke="#000000" stroke-width="0.3"/>
  </g>
  
  <!-- Neobrutalism border effect -->
  <rect x="3" y="3" width="506" height="506" fill="none" stroke="#000000" stroke-width="6"/>
  
  <!-- Additional decorative elements -->
  <!-- Corner accents -->
  <rect x="0" y="0" width="50" height="50" fill="#FDE047" stroke="#000000" stroke-width="4"/>
  <rect x="462" y="0" width="50" height="50" fill="#FDE047" stroke="#000000" stroke-width="4"/>
  <rect x="0" y="462" width="50" height="50" fill="#FDE047" stroke="#000000" stroke-width="4"/>
  <rect x="462" y="462" width="50" height="50" fill="#FDE047" stroke="#000000" stroke-width="4"/>
  
  <!-- Corner accent shadows -->
  <rect x="8" y="8" width="50" height="50" fill="#000000"/>
  <rect x="470" y="8" width="50" height="50" fill="#000000"/>
  <rect x="8" y="470" width="50" height="50" fill="#000000"/>
  <rect x="470" y="470" width="50" height="50" fill="#000000"/>
  
  <!-- Re-draw corner accents on top -->
  <rect x="0" y="0" width="50" height="50" fill="#FDE047" stroke="#000000" stroke-width="4"/>
  <rect x="462" y="0" width="50" height="50" fill="#FDE047" stroke="#000000" stroke-width="4"/>
  <rect x="0" y="462" width="50" height="50" fill="#FDE047" stroke="#000000" stroke-width="4"/>
  <rect x="462" y="462" width="50" height="50" fill="#FDE047" stroke="#000000" stroke-width="4"/>
</svg>