<svg width="32" height="32" viewBox="0 0 32 32" xmlns="http://www.w3.org/2000/svg">
  <!-- Background -->
  <rect width="32" height="32" fill="#FAFAFA" stroke="#000" stroke-width="1"/>
  
  <!-- Drop shadow -->
  <g transform="translate(1, 1)">
    <g transform="translate(6, 6) scale(0.8, 0.8)">
      <path d="M20.57,14.86L22,13.43L20.57,12L17,15.57L8.43,7L12,3.43L10.57,2L9.14,3.43L7.71,2L5.57,4.14L4.14,2.71L2.71,4.14L4.14,5.57L2,7.71L3.43,9.14L2,10.57L3.43,12L7,8.43L15.57,17L12,20.57L13.43,22L14.86,20.57L16.29,22L18.43,19.86L19.86,21.29L21.29,19.86L19.86,18.43L22,16.29L20.57,14.86Z" fill="#000"/>
    </g>
  </g>
  
  <!-- Main dumbbell -->
  <g transform="translate(6, 6) scale(0.8, 0.8)">
    <path d="M20.57,14.86L22,13.43L20.57,12L17,15.57L8.43,7L12,3.43L10.57,2L9.14,3.43L7.71,2L5.57,4.14L4.14,2.71L2.71,4.14L4.14,5.57L2,7.71L3.43,9.14L2,10.57L3.43,12L7,8.43L15.57,17L12,20.57L13.43,22L14.86,20.57L16.29,22L18.43,19.86L19.86,21.29L21.29,19.86L19.86,18.43L22,16.29L20.57,14.86Z" fill="#8B5CF6" stroke="#000" stroke-width="0.2"/>
  </g>
  
  <!-- Corner accents -->
  <rect x="0" y="0" width="8" height="8" fill="#FDE047" stroke="#000" stroke-width="1"/>
  <rect x="24" y="0" width="8" height="8" fill="#FDE047" stroke="#000" stroke-width="1"/>
  <rect x="0" y="24" width="8" height="8" fill="#FDE047" stroke="#000" stroke-width="1"/>
  <rect x="24" y="24" width="8" height="8" fill="#FDE047" stroke="#000" stroke-width="1"/>
</svg>