<svg xmlns="http://www.w3.org/2000/svg" version="1.1" xmlns:xlink="http://www.w3.org/1999/xlink" width="512" height="512"><svg xmlns="http://www.w3.org/2000/svg" id="SvgjsSvg1001" viewBox="0 0 512 512" width="512" height="512">
  <!-- Background -->
  <rect width="512" height="512" fill="#FAFAFA"></rect>
  
  <!-- Drop shadow for dumbbell -->
  <g transform="translate(12, 12)">
    <g transform="translate(100, 100) scale(12, 12)">
      <path d="M20.57,14.86L22,13.43L20.57,12L17,15.57L8.43,7L12,3.43L10.57,2L9.14,3.43L7.71,2L5.57,4.14L4.14,2.71L2.71,4.14L4.14,5.57L2,7.71L3.43,9.14L2,10.57L3.43,12L7,8.43L15.57,17L12,20.57L13.43,22L14.86,20.57L16.29,22L18.43,19.86L19.86,21.29L21.29,19.86L19.86,18.43L22,16.29L20.57,14.86Z" fill="#000000"></path>
    </g>
  </g>
  
  <!-- Main dumbbell -->
  <g transform="translate(100, 100) scale(12, 12)">
    <path d="M20.57,14.86L22,13.43L20.57,12L17,15.57L8.43,7L12,3.43L10.57,2L9.14,3.43L7.71,2L5.57,4.14L4.14,2.71L2.71,4.14L4.14,5.57L2,7.71L3.43,9.14L2,10.57L3.43,12L7,8.43L15.57,17L12,20.57L13.43,22L14.86,20.57L16.29,22L18.43,19.86L19.86,21.29L21.29,19.86L19.86,18.43L22,16.29L20.57,14.86Z" fill="#8B5CF6" stroke="#000000" stroke-width="0.3"></path>
  </g>
</svg><style>@media (prefers-color-scheme: light) { :root { filter: none; } }
@media (prefers-color-scheme: dark) { :root { filter: none; } }
</style></svg>